<?xml version="1.0" encoding="UTF-8"?>
<!DOCTYPE svg PUBLIC "-//W3C//DTD SVG 1.0//EN" "http://www.w3.org/TR/2001/REC-SVG-20010904/DTD/svg10.dtd">
<!-- Creator: CorelDRAW X8 -->
<svg xmlns="http://www.w3.org/2000/svg" xml:space="preserve" width="1937px" height="1703px" version="1.0" style="shape-rendering:geometricPrecision; text-rendering:geometricPrecision; image-rendering:optimizeQuality; fill-rule:evenodd; clip-rule:evenodd"
viewBox="0 0 193700 170302"
 xmlns:xlink="http://www.w3.org/1999/xlink">
 <defs>
  <style type="text/css">
   <![CDATA[
    .str0 {stroke:#FEFEFE;stroke-width:1476.65;stroke-linecap:round}
    .fil2 {fill:none}
    .fil3 {fill:black}
    .fil0 {fill:#FEFEFE}
    .fil6 {fill:#FF017E}
    .fil4 {fill:#FFDC42}
    .fil5 {fill:black;fill-rule:nonzero}
    .fil1 {fill:url(#id0)}
   ]]>
  </style>
  <linearGradient id="id0" gradientUnits="userSpaceOnUse" x1="89922" y1="22586" x2="105314" y2="166467">
   <stop offset="0" style="stop-opacity:1; stop-color:#FFDC42"/>
   <stop offset="0.121569" style="stop-opacity:1; stop-color:#FFDC42"/>
   <stop offset="0.521569" style="stop-opacity:1; stop-color:#00ACAE"/>
   <stop offset="1" style="stop-opacity:1; stop-color:#FF017E"/>
  </linearGradient>
 </defs>
 <g id="Capa_x0020_1">
  <metadata id="CorelCorpID_0Corel-Layer"/>
  <path class="fil0" d="M71107 12134c604,350 1190,717 1757,1088 2574,1686 5256,4134 7610,6643 2367,-409 4768,-709 7196,-893 182,-547 378,-1089 595,-1626 1243,-3065 2590,-6084 4380,-8875 4709,-7343 12313,-11010 18805,-6494 1766,925 3471,2394 5041,4486 2330,2520 4525,6732 5985,9813 1252,2640 2804,6269 3132,9651 19871,9332 35260,27092 41090,49230 83,21 166,41 249,64 155,-1423 360,-2839 633,-4238 1741,-8889 8996,-13707 17711,-10247 7208,2864 9454,9557 7980,16755 -782,3821 -1750,7604 -2721,11381 -927,3601 -1818,7374 -3234,10824 478,1012 819,2087 1006,3198 975,5792 -2419,11649 -7970,13610 -3771,1331 -7588,950 -10900,-1345 -885,-613 -1670,-1337 -2346,-2145 -71,46 -143,92 -214,137 -8459,33496 -38731,57151 -73468,57151 -24589,0 -47428,-11850 -61633,-31693 -4621,1381 -9478,1778 -14208,500 -6815,-1844 -12081,-6973 -13842,-13844 -1235,-4832 -584,-9781 1722,-14038 -1095,-955 -2045,-2073 -2804,-3328 -5328,-8815 -2106,-20420 4862,-27341 3943,-3916 8237,-6420 13371,-8007 4739,-15676 14281,-28953 26737,-38393 -1,-103 -3,-207 -5,-309 -19,-1047 -28,-2094 -18,-3141 34,-3699 392,-9227 1672,-12654 263,-711 495,-1434 765,-2143 1651,-4312 5842,-7435 10496,-7483 3743,-40 7447,1717 10569,3706l-1 0z"/>
  <path class="fil1" d="M93424 22445c34280,0 62968,23928 70277,55994 2409,115 4748,985 6533,2657 122,-3226 390,-6437 971,-9405 1284,-6564 6112,-10148 12723,-7523 5529,2195 6831,7191 5727,12581 -763,3720 -1735,7525 -2680,11203 -865,3363 -1842,7422 -3183,10605 -191,452 -413,885 -664,1289 780,1065 1326,2313 1554,3660 677,4027 -1694,8152 -5558,9516 -2658,938 -5237,719 -7569,-898 -1723,-1192 -2848,-2952 -3343,-4877 -1276,1411 -2833,2624 -4537,3498 -7357,32000 -36017,55865 -70251,55865 -25148,0 -47283,-12881 -60180,-32401 -4695,1824 -9801,2659 -14697,1335 -5531,-1496 -9800,-5613 -11229,-11194 -1350,-5274 82,-10344 3290,-14138 -1958,-919 -3664,-2361 -4789,-4222 -4451,-7364 -1442,-17106 4305,-22814 4138,-4110 8513,-6305 13748,-7627 8332,-30601 36312,-53104 69552,-53104z"/>
  <path class="fil2 str0" d="M121265 34073c18439,8506 32325,25196 36997,45415m-689 32781c-7765,28139 -33542,48804 -64149,48804 -22934,0 -43159,-11603 -55126,-29258m-8328 -57382c3761,-11888 10767,-22331 19983,-30290"/>
  <g id="_2313544864224">
   <path class="fil3" d="M23766 112339c-602,1090 -1956,1351 -3008,1978 -1932,1149 -3182,3340 -2749,5609 623,3278 4016,4255 6942,4085 5030,-291 10500,-3693 13595,-7588 3564,-4488 5536,-9412 6195,-15104 639,-5507 -593,-11395 -5471,-14646 -5080,-3386 -11635,-2311 -16688,525 -4029,2261 -9527,7173 -8030,12405 415,1451 1273,1707 2692,1836 1130,100 2580,563 2816,1848 172,945 -450,1760 -1168,2287 -2753,2014 -7271,739 -8966,-2066 -3266,-5406 -554,-12821 3579,-16926 4417,-4388 9061,-6098 15129,-7122 7232,-1222 14566,114 19544,5865 4988,5761 5911,14018 4194,21223 -2119,8890 -8020,16247 -15890,20781 -4829,2780 -11067,5100 -16681,3582 -3860,-1043 -6835,-3847 -7834,-7751 -1527,-5969 2024,-11363 7537,-13575 1457,-584 3798,-1001 4420,496 225,-2632 570,-5116 808,-6596 645,-4009 1688,-9158 3461,-12820 1002,-2072 2159,-4408 4890,-4048 2765,364 3025,2145 2237,4440 -657,1916 -1405,3865 -1947,5811 -828,2971 -1464,5888 -1969,8932 -542,3268 -1008,6462 -1082,9783 -37,1640 268,4090 -1254,5169 -1509,1070 -4034,747 -4772,-1103 -613,-1535 -685,-4365 -530,-7310l0 0zm111692 -31898c2440,-1089 4497,1300 3007,3966 -7,15 -16,28 -25,42 -973,1501 -3376,2323 -4998,2825 -322,100 -659,-23 -839,-306 -920,-1430 -2230,-3605 -2009,-5379 2,-16 3,-32 7,-48 583,-3028 3690,-3499 4857,-1100l0 0zm-30456 -14154c-750,743 -1431,1804 -1832,2487 -1462,2499 -2165,5071 -3028,7800 -498,1574 -710,2310 -2647,2056 -452,-60 -828,-140 -1197,-297 -854,904 -2050,1418 -3323,1347 -895,-48 -1398,-295 -1998,-929 -205,-215 -381,-430 -549,-653 -1427,1429 -2941,2536 -5168,2433 -2067,-95 -3755,-1638 -4031,-3685 -211,-1569 69,-3372 414,-4908 356,-1592 893,-3241 1394,-4795 29,-90 59,-182 87,-272 -2,4 -5,5 -7,9 -583,583 -1697,485 -2394,199 -911,-374 -1552,-769 -2029,-1668 -1774,-3340 1916,-6661 4917,-7417 1146,-447 3441,-512 4490,99 2124,1239 1769,3430 1155,5422 -604,1954 -1233,3893 -1792,5863 -468,1646 -1250,4335 -1249,6026 0,634 445,680 899,369 994,-682 1939,-1679 2383,-2809 754,-1912 1318,-4117 1865,-6105 404,-1469 800,-2942 1220,-4407 258,-893 565,-2067 967,-2901 959,-1988 3620,-1485 4162,429 423,1494 -2287,11540 -2818,13673 -67,271 -216,1008 -212,1472 110,-79 217,-169 270,-217 302,-267 731,-1411 867,-1794 906,-2530 1533,-5397 2108,-8022 201,-915 487,-2372 1255,-2977 781,-616 2278,-750 3072,-71 377,322 560,652 631,999 941,-1039 2062,-1901 3282,-2256 2205,-642 3487,-173 3925,2223 589,3242 -1460,6880 -2047,10083 936,-1058 1593,-2943 2449,-4070 1572,-2065 3044,-821 2544,1385 -344,1514 -1700,3898 -2689,5098 -1843,2243 -4412,3916 -6862,1238 -51,-56 -90,-111 -122,-182 -989,-2090 524,-7320 1638,-10275zm-21573 -355c434,-1335 892,-2687 1399,-3974 49,-128 158,-452 174,-659 -90,11 -196,35 -245,48 -1234,330 -3634,1566 -2235,3059 404,361 831,950 907,1526zm90857 42248c-1803,-1250 -2061,-4093 -703,-5777 683,-850 1577,-1259 2668,-1280 1810,-37 3402,1426 3697,3179 291,1729 -757,3607 -2422,4195 -1210,428 -2172,420 -3240,-318l0 1zm646 -17931c0,-5599 -88,-12167 982,-17635 702,-3585 2480,-5480 6243,-3986 3252,1291 3418,4119 2796,7157 -747,3645 -1702,7372 -2627,10973 -494,1923 -1004,3844 -1562,5751 -403,1377 -837,2860 -1395,4182 -452,1070 -1233,2052 -2539,1835 -2528,-424 -1898,-6397 -1898,-8277zm-98542 23819c1995,-20 3874,-3208 4251,-4797 1482,-6224 2034,-10996 8233,-14502 1469,-830 2883,-1236 4585,-1192 1051,28 1845,197 2732,768 266,173 501,337 755,485 170,-259 325,-528 473,-807 737,-1373 1844,-1913 3373,-1543 1567,380 2127,1448 1838,3002 -204,1093 -650,2281 -1035,3326 -512,1395 -1052,2779 -1550,4179 -576,1623 -1976,5602 -1414,7537 1366,-86 1781,-1569 2438,-2662 447,-743 812,-1526 1110,-2340 685,-1864 1016,-3866 1321,-5822 378,-2426 736,-4810 1324,-7200 652,-2641 1531,-5341 2631,-7829 1486,-3363 4472,-8760 8934,-7936 52,9 98,23 148,45 3819,1587 240,11975 -761,14516 -1137,2888 -2784,6241 -4854,8579 -473,535 -1481,1470 -1804,2064 -438,803 -353,3045 -355,3939 0,653 113,2729 917,3003 1071,365 2909,-2516 3303,-3185 1238,-2108 936,-2666 1289,-5023 1010,-6706 2865,-14878 6375,-20772 1236,-2078 4349,-6391 7318,-5145 2117,892 2246,3952 2047,5876 -318,3088 -1741,7133 -2968,9991 -1086,2527 -2400,5110 -4156,7244 -687,839 -1860,1859 -2395,2714 -358,574 -455,1202 -482,1868 -47,1153 -217,3893 682,4740 2518,1148 5023,-6582 5417,-8146 619,-2465 1160,-5083 1956,-7489 480,-1452 1215,-3307 2712,-3975 515,-229 1063,-298 1622,-247 2038,178 2975,1317 2578,3344 -747,3796 -4615,10917 -3224,14751 1294,-111 2119,-1160 2627,-2325 210,-478 270,-1495 318,-2023 106,-1206 214,-2389 431,-3581 628,-3432 2020,-6386 4490,-8889 2343,-2379 6986,-4347 10153,-2454 3021,1806 2040,8202 -1433,8714 -1338,198 -2313,-764 -2389,-2071 -44,-736 192,-1334 706,-1857 120,-122 579,-494 639,-616 99,-201 -72,-523 -261,-608 -90,-40 -182,-67 -279,-77 -902,-99 -1963,1087 -2449,1716 -1064,1377 -1889,3150 -2427,4799 -604,1850 -1088,4334 -608,6259 214,851 634,1760 1512,2092 2039,771 4862,-1656 6022,-3102 879,-1095 1637,-2470 1849,-3874 499,-3305 766,-5593 2680,-8469 1658,-2391 2819,-3219 5376,-4215 2572,-2247 7344,-2369 9156,940 1197,2187 1013,5808 489,8681 613,-708 1144,-1554 1502,-2179 362,-627 576,-1322 933,-1928 969,-1643 3215,-1207 3137,878 -141,3787 -3503,6709 -6691,8303 -447,1116 -971,2288 -1635,3279 -1476,2198 -4066,4126 -6720,4518 -1806,266 -3669,266 -5154,-941 -736,-599 -1322,-1425 -1922,-2195 -348,359 -698,779 -984,1091 -773,851 -1571,1664 -2479,2375 -2491,1955 -5254,2712 -8384,2034 -2098,-452 -2377,-1243 -3688,-2106 -2,2 -4,3 -4,3 -637,481 -1183,1199 -1751,1768 -844,842 -1727,1421 -2891,1725 -2983,780 -4572,-166 -5678,-2515 -74,73 -146,149 -218,228 -548,604 -979,1280 -1561,1873 -864,880 -1858,1434 -3028,1808 -3386,1077 -4764,122 -6319,-2309 -313,316 -591,660 -876,1017 -1163,1451 -2071,2338 -3891,2964 -3166,1093 -5304,50 -6506,-2607 -560,561 -964,1352 -1457,1938 -713,853 -1739,1870 -2734,2366 -3062,1529 -4958,468 -6388,-2278 -1386,1567 -2106,3111 -4580,3927 -2590,855 -4974,101 -6448,-2030 -554,469 -1234,1301 -1566,1642 -1266,1303 -2616,2171 -4421,2546 -2101,436 -4151,173 -5392,-1748 -365,-565 -604,-1185 -801,-1822 -3355,4270 -9554,8351 -14693,5309 -4848,-2869 -4151,-10873 -2385,-15325 1366,-3450 3808,-6627 7311,-8081 2267,-941 5164,-1303 7041,630 1311,1351 1566,3307 1244,5092 -429,2381 -1841,4580 -3489,6306 -1567,1644 -2904,2583 -5047,3297 -565,187 -1125,356 -1679,566 -9,1024 203,2198 1103,2772 1167,742 2922,189 4040,-381 1970,-1003 3658,-2754 4806,-4626 1963,-3201 1753,-4474 2482,-8070 556,-2737 1416,-5421 2209,-8101 -1300,83 -2603,175 -3904,76 -1218,-91 -2219,-1292 -1940,-2509 316,-1377 997,-2026 2468,-2104 1682,-88 3148,-11 4837,-198 1024,-2336 1759,-4597 3004,-6901 801,-1485 1889,-2140 3592,-1706 2130,546 2267,2050 1697,3831 -388,1215 -934,2389 -1377,3588 2341,-399 5002,-1206 7136,-1854 2552,-773 5602,-1711 7998,-2870 34,-16 62,-29 97,-39 1593,-507 4232,-2668 5779,-1095 44,46 78,90 111,147 385,660 551,1407 299,2148 -555,1623 -2732,2343 -4155,2993 -1883,860 -3857,1679 -5822,2332 -2052,682 -4262,1226 -6362,1759 -2155,547 -4428,1151 -6622,1583 -1510,3482 -4506,16272 -3150,19407l0 0zm45057 -20228c1147,-1949 2249,-4946 2606,-6037 468,-1439 1193,-4002 1373,-6082 -974,2062 -2110,5463 -2381,6317 -512,1614 -984,3254 -1383,4901 -69,279 -143,585 -215,901zm-11067 858c908,-1805 1798,-4495 2168,-5774 398,-1366 881,-3278 1017,-4963 -1218,2262 -2546,7474 -3185,10737l0 0zm53083 703c659,-1699 754,-3999 652,-5710 -48,-818 -249,-1798 -1266,-1420 -1958,729 -1531,6000 614,7130l0 0zm-1418 4046c-1267,-517 -2692,-1645 -3259,-2634 -757,-1321 -1015,-2669 -1179,-4078 -609,1347 -915,3404 -982,4274 -101,1291 -111,5034 1324,5703 611,284 1432,-182 1930,-530 849,-768 1645,-1693 2166,-2735zm-74977 9474c-247,2966 870,4827 3342,2032 1948,-2205 2767,-6241 3648,-9006 194,-611 812,-2147 574,-2756 -136,-348 -599,-519 -926,-611 -178,-49 -362,-72 -547,-69 -2449,57 -4516,4425 -5187,6349 -454,1296 -789,2691 -904,4061l0 0zm-28874 560c1051,-661 2198,-1881 2777,-2581 551,-664 2749,-3690 2126,-4594 -12,-18 -26,-36 -42,-50 -186,-87 -382,-132 -590,-120 -1580,87 -2996,3053 -3469,4299 -346,911 -662,2000 -802,3046l0 0z"/>
   <path class="fil3" d="M54340 105116c1478,-2758 3688,-5139 6619,-6356 2417,-1002 5457,-1336 7449,715 1396,1438 1686,3508 1342,5413 -442,2456 -1886,4716 -3586,6498 -1609,1688 -2996,2659 -5198,3390 -477,158 -953,305 -1423,473 26,835 229,1758 929,2205 1036,658 2692,102 3676,-399 1908,-971 3547,-2677 4657,-4490 1930,-3146 1716,-4405 2437,-7950 522,-2576 1311,-5103 2063,-7626 -1140,73 -2282,131 -3426,43 -1443,-112 -2603,-1524 -2273,-2961 353,-1536 1173,-2304 2809,-2391 1603,-85 3012,-14 4605,-173 987,-2275 1714,-4481 2931,-6732 882,-1635 2139,-2366 4009,-1887 2348,600 2594,2311 1958,4301 -325,1013 -759,1998 -1151,2994 2161,-424 4527,-1142 6451,-1725 2532,-768 5567,-1700 7943,-2851 50,-23 94,-41 147,-58 1760,-560 4384,-2801 6153,-1001 67,68 118,134 168,218 437,754 616,1611 328,2453 -606,1776 -2800,2502 -4350,3210 -1895,866 -3881,1691 -5858,2348 -2062,685 -4280,1229 -6388,1765 -2101,533 -4308,1118 -6450,1549 -1444,3529 -4219,15436 -3170,18695 1698,-274 3331,-3159 3649,-4493 625,-2622 1038,-5251 2104,-7753 1321,-3097 3376,-5328 6307,-6985 1525,-863 3007,-1287 4776,-1241 1119,30 1977,219 2920,828 154,97 296,195 438,288 91,-155 180,-312 266,-473 816,-1524 2092,-2138 3784,-1728 1760,427 2442,1680 2115,3426 -208,1116 -659,2320 -1051,3387 -512,1393 -1052,2777 -1548,4177 -501,1414 -1785,5071 -1481,6985 944,-288 1303,-1533 1839,-2426 435,-724 791,-1483 1081,-2276 676,-1840 1001,-3822 1303,-5752 380,-2437 740,-4831 1331,-7230 657,-2662 1542,-5383 2650,-7890 1572,-3553 4658,-9017 9338,-8152 82,16 149,36 225,67 2095,871 2212,3975 1672,7193 593,-1380 1250,-2698 1977,-3919 1356,-2276 4574,-6642 7779,-5295 2302,967 2489,4140 2272,6253 -14,131 -30,265 -47,401 812,-2906 3931,-3353 5294,-1094 2610,-890 4766,1737 3161,4611 -13,23 -23,41 -37,62 -924,1423 -2961,2249 -4617,2791 1071,604 1514,1732 1206,3305 -698,3553 -4367,10534 -3330,14270 992,-221 1620,-1113 2034,-2061 183,-422 245,-1441 287,-1910 106,-1217 216,-2410 436,-3613 641,-3506 2068,-6527 4589,-9083 2470,-2506 7283,-4497 10606,-2511 1612,964 2189,3077 1917,5062 304,-664 678,-1338 1153,-2050 1686,-2431 2899,-3310 5486,-4324 2759,-2362 7757,-2417 9673,1083 1045,1908 1089,4821 756,7454 231,-348 432,-682 591,-959 362,-627 576,-1322 934,-1931 1163,-1972 3918,-1390 3824,1078 -145,3886 -3494,6886 -6769,8556 -447,1102 -966,2244 -1619,3219 -1534,2284 -4214,4269 -6972,4677 -1917,282 -3867,261 -5441,-1019 -661,-537 -1189,-1229 -1717,-1914 -245,272 -483,553 -683,772 -787,867 -1599,1691 -2524,2417 -2576,2021 -5452,2803 -8691,2104 -1170,-252 -1980,-660 -2895,-1416 -242,-199 -470,-397 -710,-581 -530,458 -1012,1076 -1499,1563 -890,888 -1831,1499 -3058,1820 -2954,772 -4678,-76 -5860,-2233 -485,565 -891,1174 -1426,1721 -908,922 -1951,1510 -3180,1900 -3372,1073 -4919,215 -6479,-2066 -184,210 -361,431 -541,653 -1207,1508 -2168,2432 -4057,3083 -3144,1084 -5386,157 -6711,-2297 -395,502 -738,1096 -1089,1517 -749,893 -1808,1936 -2853,2459 -3069,1531 -5119,604 -6623,-1969 -1227,1471 -2004,2848 -4394,3637 -2606,860 -5035,173 -6616,-1830 -474,469 -1018,1112 -1250,1348 -1317,1358 -2733,2260 -4609,2651 -2228,462 -4409,157 -5745,-1859 -276,-417 -486,-860 -659,-1323 -3547,4213 -9636,7901 -14746,4877 -3264,-1932 -4137,-6049 -3843,-9969 -2871,6690 -7977,12216 -14370,15899 -4921,2835 -11245,5166 -16963,3619 -3989,-1078 -7061,-3983 -8094,-8015 -1575,-6150 2071,-11729 7756,-14008 459,-185 938,-341 1420,-450 1087,-244 2152,-159 2849,364 221,-2294 518,-4395 733,-5731 652,-4050 1704,-9225 3492,-12922 1083,-2237 2342,-4640 5270,-4253 3011,397 3404,2406 2539,4927 -655,1907 -1400,3851 -1940,5788 -826,2959 -1458,5863 -1960,8894 -540,3249 -1004,6429 -1079,9732 -40,1796 272,4271 -1407,5461 -1705,1208 -4502,807 -5330,-1268 -559,-1403 -687,-3817 -602,-6423 -694,523 -1608,798 -2405,1271 -1797,1070 -2978,3108 -2576,5225 587,3077 3835,3942 6561,3783 4923,-284 10297,-3637 13327,-7448 3522,-4435 5466,-9292 6117,-14918 622,-5362 -552,-11124 -5311,-14295 -4957,-3305 -11373,-2226 -16301,540 -3859,2166 -9297,6946 -7856,11981 368,1291 1107,1455 2371,1570 1310,116 2876,679 3146,2150 199,1091 -475,2036 -1315,2650 -2928,2144 -7691,819 -9499,-2173 -3358,-5558 -623,-13148 3635,-17378 4474,-4444 9183,-6187 15327,-7225 7362,-1243 14820,138 19885,5987 4470,5164 5738,12292 4776,18927l0 -1zm78918 -17060c-890,-1404 -1977,-3312 -1951,-5016 -510,2904 -1735,6317 -2818,8836 -1099,2560 -2431,5170 -4209,7333 -669,816 -1850,1850 -2367,2675 -322,515 -401,1091 -426,1687 -39,971 -192,3643 525,4416 116,48 238,71 369,58 1975,-190 4064,-6343 4477,-7984 623,-2475 1165,-5100 1963,-7515 519,-1572 1298,-3477 2913,-4197 488,-216 1000,-305 1524,-293l0 0zm-16916 6576c-1066,2354 -2422,4773 -4036,6595 -439,496 -1460,1451 -1756,1997 -385,702 -307,2978 -309,3762 -2,440 115,2465 665,2652 758,259 2590,-2555 2866,-3021 1200,-2044 895,-2586 1243,-4891 339,-2251 771,-4661 1327,-7094zm35788 -157c-606,980 -1497,1701 -2629,1868 -1552,228 -2724,-893 -2812,-2417 -44,-782 190,-1460 720,-2039 171,-187 556,-476 655,-590 0,-40 -49,-120 -72,-135 -55,-25 -110,-41 -168,-46 -722,-82 -1736,1078 -2117,1573 -1038,1343 -1843,3079 -2369,4687 -581,1780 -1061,4206 -599,6054 180,722 532,1554 1282,1837 1848,699 4562,-1688 5604,-2986 838,-1043 1569,-2362 1772,-3699 232,-1534 415,-2849 733,-4106l0 -1zm-47089 -25125c-174,267 -325,515 -445,719 -1444,2468 -2141,5026 -2994,7724 -553,1748 -911,2591 -3047,2309 -391,-51 -731,-118 -1056,-231 -915,872 -2140,1357 -3436,1285 -990,-53 -1582,-341 -2246,-1043 -113,-119 -219,-237 -317,-357 -1420,1358 -2956,2352 -5149,2251 -2247,-102 -4080,-1781 -4380,-4004 -217,-1617 63,-3455 418,-5039 316,-1407 770,-2857 1219,-4250 -634,148 -1365,41 -1918,-187 -994,-408 -1695,-856 -2214,-1834 -1894,-3567 1895,-7119 5131,-7945 1262,-481 3642,-535 4786,134 2297,1338 1994,3679 1323,5849 -604,1951 -1231,3888 -1789,5855 -455,1604 -1237,4279 -1236,5925 0,47 16,148 50,197 81,-12 222,-98 272,-132 932,-639 1831,-1580 2249,-2639 748,-1900 1308,-4095 1852,-6069 404,-1470 800,-2945 1222,-4412 263,-916 575,-2102 989,-2957 1105,-2295 4214,-1750 4850,487 434,1533 -1934,10419 -2688,13362 37,-101 69,-189 92,-251 900,-2514 1522,-5367 2094,-7978 226,-1026 523,-2504 1388,-3187 920,-728 2611,-856 3541,-60 230,198 401,397 523,604 897,-894 1928,-1612 3046,-1937 2417,-703 3912,-104 4389,2512 482,2640 -645,5324 -1459,7935 401,-761 791,-1535 1206,-2080 551,-724 1432,-1513 2410,-1061 1037,480 1000,1815 788,2752 -357,1572 -1738,4005 -2763,5253 -1992,2420 -4801,4114 -7421,1252 -78,-87 -134,-170 -184,-276 -835,-1765 -37,-5494 904,-8476l0 0zm-20542 -3379c344,-1026 703,-2052 1093,-3041 0,-1 0,-3 2,-5 -207,73 -410,157 -604,254 -849,421 -1960,1139 -1102,2071 221,200 436,447 611,721zm90686 43619c-1981,-1372 -2273,-4460 -783,-6312 753,-934 1748,-1393 2949,-1417 1993,-41 3743,1555 4070,3487 319,1903 -828,3956 -2665,4604 -1320,466 -2406,445 -3571,-362l0 0zm485 -18234c0,-5625 -86,-12209 989,-17705 747,-3817 2751,-5844 6742,-4259 3433,1363 3682,4352 3021,7576 -746,3648 -1703,7382 -2630,10989 -496,1926 -1008,3852 -1566,5763 -406,1391 -844,2886 -1409,4221 -521,1236 -1450,2304 -2940,2055 -2881,-482 -2207,-6502 -2207,-8640l0 0zm-51766 -126c421,-1040 751,-1960 904,-2433 214,-653 486,-1564 735,-2560 -480,1314 -880,2516 -1038,3019 -209,655 -408,1314 -601,1974zm-10807 -625c80,-256 149,-483 205,-676 73,-251 148,-521 226,-805 -148,480 -291,978 -431,1481l0 0zm51282 5329c498,-1591 564,-3607 475,-5113 -31,-548 -63,-1360 -769,-1097 -1505,560 -1272,4843 294,6210zm-1739 4795c-1237,-599 -2512,-1658 -3066,-2625 -514,-895 -806,-1794 -994,-2716 -279,1084 -438,2230 -481,2758 -84,1088 -102,4772 1113,5339 443,207 1172,-228 1544,-484 714,-649 1393,-1416 1884,-2272zm-74096 9331c-53,632 -42,2690 715,3001 569,232 1677,-902 1981,-1244 1889,-2138 2717,-6190 3573,-8874 151,-470 758,-2059 583,-2511 -79,-203 -505,-339 -683,-388 -143,-41 -288,-60 -438,-56 -2230,52 -4239,4360 -4848,6101 -442,1268 -770,2633 -883,3971l0 0zm-28718 -309c789,-648 1559,-1483 1968,-1979 468,-564 2447,-3314 2131,-4109 -106,-37 -215,-58 -332,-51 -1364,74 -2738,2994 -3144,4063 -238,626 -464,1347 -623,2076l0 0z"/>
  </g>
  <path class="fil0" d="M133223 86569c-1400,-2178 -2041,-3721 -1896,-4888 498,-2594 3164,-2771 3729,-136 2125,-1653 4052,197 2764,2503 -639,985 -2122,1755 -4597,2521z"/>
  <path class="fil3" d="M64197 137044c-895,-1175 -2574,-2478 -3625,-3481 -648,-616 -1250,-1270 -1919,-1863 -867,-768 -1907,-1608 -1854,-2895 11,-302 205,-551 495,-636 1649,-489 3647,-706 5360,-904 1584,-184 3183,-328 4762,-551 3460,-489 6921,-969 10388,-1409 13706,-1744 27366,-3843 41086,-5480 3314,-397 6663,-960 9974,-1430 2208,-314 4424,-621 6643,-874 982,-109 3067,-395 4014,-235 284,48 499,253 561,533 427,1955 -4852,6372 -6183,7843 -572,634 -1449,1300 -1905,2064 742,930 2703,2315 3490,2917 1259,958 3805,2812 3991,4490 40,372 -223,709 -594,760 -6539,904 -13118,1508 -19671,2294 -6533,784 -13037,1785 -19577,2516 -2417,270 -4862,653 -7272,997 -3969,567 -7936,1139 -11907,1693 -2431,339 -18496,2721 -20129,2165 -272,-93 -452,-330 -466,-620 -72,-1393 1444,-3439 2226,-4542 470,-664 1794,-2419 2112,-3351l0 -1z"/>
  <path class="fil3" d="M64497 137797c-900,-1113 -2487,-2354 -3471,-3291 -642,-613 -1245,-1265 -1910,-1854 -961,-853 -2029,-1743 -1970,-3169 17,-452 308,-827 741,-954 1672,-494 3685,-715 5420,-916 1580,-184 3177,-327 4751,-549 3463,-489 6927,-970 10394,-1411 13706,-1743 27368,-3843 41090,-5480 3310,-396 6656,-961 9964,-1429 2214,-314 4432,-623 6653,-873 1029,-117 3116,-405 4112,-233 425,72 747,379 840,799 484,2207 -4797,6531 -6262,8150 -484,533 -1268,1156 -1732,1804 802,878 2583,2146 3270,2668 1366,1042 3921,2904 4124,4728 62,558 -334,1065 -890,1143 -6543,902 -13121,1506 -19678,2293 -6533,784 -13039,1783 -19579,2514 -2413,270 -4857,653 -7261,998 -3969,566 -7938,1138 -11909,1693 -2532,353 -18535,2747 -20288,2148 -409,-139 -678,-496 -701,-928 -77,-1511 1443,-3567 2290,-4762 399,-563 1617,-2193 2002,-3090l0 1z"/>
  <path class="fil4" d="M131194 127779c436,-1056 1402,-1707 2193,-2581 1513,-1671 6331,-5802 6019,-7230 -1873,-318 -17244,2163 -20435,2544 -13412,1599 -27554,3759 -41080,5478 -3431,438 -7002,931 -10378,1409 -2730,385 -7627,724 -10023,1434 -39,987 936,1741 1624,2350 809,717 1026,1011 1935,1878 1001,955 3138,2714 3895,3837 -263,1845 -4497,6029 -4394,8005 1898,646 34140,-4345 39008,-4889 6596,-736 13049,-1732 19569,-2514 6504,-781 13229,-1404 19659,-2292 -251,-2276 -6513,-5477 -7592,-7429l0 0z"/>
  <path class="fil5" d="M73858 139394l-1675 -3165 -1123 148 -154 3328c-14,281 -146,438 -397,471l-168 23c-274,36 -404,-88 -388,-369l379 -8674c18,-273 154,-427 412,-461l1329 -174c1033,-136 1771,-14 2214,365 443,378 643,991 597,1838l-48 740c-48,1301 -618,2150 -1711,2549l1711 3134c143,288 51,454 -275,496l-129 16c-267,36 -459,-53 -574,-264l0 -1zm39 -6488c32,-618 -86,-1052 -355,-1306 -270,-253 -694,-341 -1269,-265l-1007 132 -173 4066 954 -127c602,-79 1050,-268 1343,-570 292,-300 452,-742 482,-1323l25 -607zm3819 -3129l3639 -478c137,-19 235,0 289,53 55,55 78,152 71,293l5 39c-7,150 -40,260 -100,328 -62,69 -161,113 -299,131l-3082 406 -142 3314 2259 -298c256,-34 377,86 360,358 -4,291 -136,452 -394,486l-2258 298 -163 3656 3085 -406c249,-31 367,96 353,387 -7,150 -39,260 -95,329 -57,68 -154,111 -292,128l-3638 481c-276,35 -405,-87 -391,-369l382 -8674c16,-272 153,-428 411,-461l0 -1zm8812 3683l1794 -236c300,-39 441,74 425,339l-173 3972c-12,177 -95,276 -251,297 -180,23 -296,-32 -349,-164l-129 -390c-410,552 -1019,881 -1826,988 -852,112 -1511,20 -1979,-277 -468,-298 -688,-771 -660,-1423l254 -5651c28,-652 270,-1187 726,-1605 457,-419 1073,-680 1847,-781 859,-113 1532,-23 2018,272 485,295 713,768 685,1420l-68 1084c-14,282 -151,441 -409,475 -198,26 -337,19 -417,-18 -77,-37 -111,-136 -97,-295l34 -937c28,-458 -103,-788 -392,-986 -288,-197 -694,-263 -1220,-192 -1127,147 -1711,688 -1755,1621l-219 5213c-30,504 86,855 349,1058 262,201 687,263 1272,187 524,-70 941,-245 1250,-526 309,-282 473,-669 496,-1162l63 -1610 -1303 171c-137,20 -231,0 -282,-53 -51,-54 -76,-152 -78,-293 14,-298 145,-464 394,-498l0 0zm8744 3076l-399 -1838 -3006 396 -542 1961c-50,164 -113,275 -193,334 -79,60 -201,98 -365,120l-78 10c-291,39 -397,-91 -312,-392l2664 -9066c51,-206 185,-325 399,-355l491 -63c206,-27 327,58 362,254l1914 8464c63,279 -52,440 -343,477l-78 10c-173,23 -294,13 -365,-30 -71,-42 -120,-137 -148,-282l-1 0zm-1640 -7671l-1506 5316 2569 -339 -1063 -4977zm5788 -1538l-357 8250 2993 -393c249,-34 367,95 353,386 -7,150 -39,258 -96,327 -56,69 -153,113 -291,131l-3547 467c-275,36 -406,-86 -390,-369l381 -8674c16,-272 154,-427 412,-460l167 -22c267,-35 392,83 375,357l0 0zm5565 -1139l3638 -480c138,-18 234,0 290,55 55,54 78,151 71,293l5 39c-7,148 -41,257 -101,328 -61,69 -160,111 -298,131l-3084 406 -142 3312 2259 -297c257,-33 379,85 362,359 -6,289 -136,452 -396,485l-2256 297 -163 3658 3085 -406c249,-34 365,95 351,387 -5,148 -37,258 -94,326 -56,69 -153,113 -291,131l-3639 478c-275,38 -406,-86 -390,-369l381 -8672c16,-273 154,-427 412,-461l0 0zm9608 7844l-1676 -3165 -1123 146 -152 3328c-15,283 -148,440 -399,472l-166 23c-275,35 -406,-87 -390,-369l380 -8673c17,-273 155,-427 413,-461l1328 -176c1032,-136 1771,-14 2214,365 443,380 642,993 596,1838l-46 742c-47,1301 -619,2150 -1712,2548l1711 3135c143,288 51,452 -276,495l-129 17c-266,35 -457,-53 -573,-265l0 0zm39 -6490c33,-616 -87,-1052 -355,-1304 -270,-253 -692,-343 -1270,-267l-1006 132 -173 4066 955 -125c602,-79 1049,-270 1342,-570 293,-302 454,-744 482,-1324l25 -608 0 0zm4362 -2791l-379 8672c-16,283 -149,440 -399,473l-168 22c-274,37 -404,-87 -388,-369l379 -8673c18,-273 154,-427 413,-461l166 -22c269,-36 394,84 376,358l0 0zm-623 -1245l807 -1156c108,-171 198,-279 272,-323 72,-46 182,-78 328,-97l348 -46c267,-36 332,58 194,277 -35,65 -86,138 -155,217l-964 1151c-200,210 -387,327 -558,348l-180 25c-258,33 -290,-97 -92,-396l0 0zm7117 9052l-401 -1838 -3005 396 -542 1961c-49,164 -113,276 -192,334 -79,58 -201,99 -365,120l-78 11c-291,39 -397,-92 -314,-392l2666 -9066c51,-207 183,-325 399,-355l491 -64c206,-26 326,58 362,254l1913 8464c64,279 -51,440 -342,477l-78 11c-173,23 -295,12 -365,-30 -71,-44 -120,-138 -149,-283l0 0zm-1640 -7673l-1506 5318 2569 -339 -1063 -4979z"/>
  <g id="_2313544869600">
   <path class="fil3" d="M83699 39237c-31,187 -81,383 -143,586 797,-230 1630,-110 1994,832 3,7 7,14 8,21 675,1756 -727,3958 -1483,5524 -1050,2179 -2417,4319 -3757,6331 -1640,2458 -3370,4863 -5116,7246 -3035,4140 -6268,8258 -9133,12507 -873,1296 -1549,2894 -2799,3874 -245,192 -528,268 -837,226 -309,-43 -559,-193 -741,-445 -1097,-1508 -1135,-8697 -1121,-12158 -2105,263 -4354,957 -6420,1250 -2517,357 -5688,955 -8196,858 -358,-14 -658,-178 -865,-471 -204,-293 -256,-634 -146,-975 547,-1705 2468,-2563 3856,-3478 2200,-1449 4359,-3102 6469,-4682 3017,-2260 6017,-4539 9036,-6797 2687,-2011 14599,-11173 18035,-11743 -263,-454 -507,-1033 -706,-1663 -2873,2491 -11906,5874 -15103,6825 -4437,1319 -10614,2621 -13423,-2251 -415,-722 -717,-1703 -873,-2521 -178,-934 -164,-2274 -181,-3238 -20,-1015 -29,-2034 -18,-3049 30,-3164 390,-8648 1462,-11524 261,-702 489,-1416 756,-2116 1161,-3034 4136,-5315 7427,-5348 3183,-34 6564,1749 9160,3451 3383,2218 7362,6325 9908,9494 1322,1645 1737,2032 1707,3418 1166,-1368 2982,-2119 4946,-2218 1207,-60 2191,154 2991,588 -369,-964 77,-1689 625,-3497 444,-1474 854,-2963 1435,-4393 1160,-2865 2424,-5720 4098,-8330 4370,-6815 11464,-10222 17104,-2535 1953,2036 4289,6501 5484,9020 1256,2645 3750,8337 2513,11227 -1552,3628 -5673,4527 -9188,5041 -2804,411 -6190,420 -9027,408 -2543,-13 -6736,-37 -9174,-751 -205,-37 -392,-109 -555,-222 -40,-18 -83,-37 -125,-60 -67,-37 -131,-81 -187,-129 432,4059 -1579,6450 -6100,6667 -1367,65 -2595,-120 -3596,-800l-1 0zm9462 -7281c0,0 0,0 0,0 0,0 0,0 0,0 0,0 0,0 0,0zm2685 -1213c-14,-21 -26,-43 -37,-64 -72,53 -145,106 -215,157 83,-31 166,-61 252,-93zm-16255 3097c-272,-55 -558,-121 -858,-195 7,71 5,145 -4,218 292,-7 579,-15 862,-23l0 0zm14580 4051c-256,-271 -442,-522 -532,-738 -210,-515 -12,-1098 468,-1378 3148,-1831 13086,1624 16591,2671 23,7 44,14 67,23l17048 6315c1875,420 8694,1880 9525,3212 177,284 218,598 119,916 -101,320 -313,554 -618,687 -4199,1816 -9659,2138 -14317,3021l3582 10642c124,369 57,745 -187,1047 -245,304 -597,450 -983,408 -1513,-166 -15101,-10244 -16872,-11571 -3452,-2587 -6921,-5251 -10191,-8067 -1244,-1074 -4876,-4117 -5100,-5809 -67,-510 212,-985 690,-1176 251,-99 487,-166 710,-203l0 0z"/>
   <path class="fil3" d="M80710 34276c-2117,2436 -12087,6184 -15390,7168 -4250,1262 -10300,2602 -13000,-2082 -395,-685 -681,-1629 -830,-2404 -173,-912 -158,-2237 -174,-3177 -20,-1011 -29,-2027 -18,-3038 28,-3115 383,-8572 1439,-11400 261,-700 487,-1413 754,-2112 1109,-2894 3948,-5079 7087,-5113 3098,-32 6428,1736 8953,3392 3349,2196 7302,6280 9823,9417 1648,2048 1812,1986 1497,4675 0,0 0,2 0,2 908,-2096 3076,-3219 5461,-3339 3362,-169 4836,1896 5443,4960 892,4507 -891,7109 -5584,7336 -1894,90 -3501,-304 -4553,-2001 -355,-572 -680,-1402 -908,-2284zm-312 -1840c-106,63 -228,99 -360,102 -709,18 -1819,-224 -3118,-593 72,83 141,171 206,267 156,226 175,498 55,745 -34,65 -74,125 -120,176 1075,-14 2115,-51 3072,-93 120,-6 235,16 337,62 -32,-226 -56,-449 -72,-666l0 0zm67 -1439c53,-371 138,-720 252,-1049 -143,196 -376,318 -635,306 -71,-4 -138,-7 -202,-13 225,226 422,473 585,756l0 0zm14995 -1238c-124,-39 -239,-113 -332,-219 -157,-176 -219,-402 -173,-626 -978,769 -1933,1393 -2640,1550 -229,51 -450,-2 -632,-154 -182,-152 -273,-358 -265,-593 13,-374 163,-881 378,-1427 -302,156 -657,90 -884,-160 -2052,-2271 -1445,-2402 -650,-5036 443,-1463 849,-2943 1425,-4361 1153,-2844 2406,-5681 4066,-8269 4232,-6598 11029,-9990 16511,-2497 1923,1990 4257,6457 5434,8941 1190,2510 3680,8180 2508,10921 -1491,3482 -5539,4329 -8904,4822 -2784,408 -6153,417 -8971,403 -2521,-13 -6753,-34 -9055,-737 -189,-24 -357,-84 -495,-194 -42,-14 -85,-32 -129,-56 -263,-145 -407,-417 -381,-717 28,-300 221,-540 508,-634 655,-214 1605,-547 2681,-957l0 0zm-1453 7403c-573,-480 -996,-925 -1132,-1257 -141,-342 -11,-733 311,-918 2983,-1735 12955,1706 16299,2705 16,5 28,9 44,16l17071 6324c1692,380 8588,1884 9317,3053 118,189 145,397 80,610 -68,212 -209,369 -412,458 -4274,1848 -9947,2141 -14656,3077l3717 11042c83,247 39,498 -124,699 -164,201 -399,300 -656,272 -1360,-150 -15013,-10242 -16690,-11499 -2366,-1773 -14792,-10943 -15147,-13630 -44,-341 142,-657 461,-784 572,-226 1063,-254 1517,-168l0 0zm-34173 25099c-2233,219 -4629,984 -6841,1296 -2491,353 -5653,952 -8130,855 -239,-9 -440,-119 -578,-315 -136,-194 -169,-422 -97,-647 504,-1570 2423,-2437 3708,-3284 2205,-1453 4371,-3109 6486,-4695 3018,-2260 6018,-4539 9037,-6797 2648,-1981 15222,-11612 18089,-11695 216,-7 405,70 553,226 150,155 219,346 205,561 -34,482 -210,1049 -473,1639 750,-454 1901,-768 2307,277 2,7 6,12 7,19 613,1594 -777,3793 -1470,5231 -1044,2163 -2403,4289 -3734,6286 -1635,2456 -3364,4855 -5108,7233 -3037,4146 -6271,8267 -9139,12520 -837,1241 -1532,2856 -2720,3789 -165,128 -354,180 -558,151 -207,-30 -373,-128 -497,-298 -1054,-1449 -1061,-9161 -1047,-12352l0 0z"/>
  </g>
  <path class="fil0" d="M57379 110630c-41,-3640 2987,-10597 6075,-9001 2089,1515 -3346,8443 -6075,9001zm27187 -49997c-2030,541 -4419,2365 -2556,4307 351,305 928,1073 584,1417 -245,246 -953,300 -1591,39 -755,-311 -1269,-600 -1657,-1331 -1513,-2850 1908,-5742 4493,-6367 913,-379 3038,-460 3889,32 1784,1044 1310,2984 821,4566 -819,2650 -3075,9453 -3072,12108 0,960 876,1787 2055,978 837,-576 2066,-1660 2652,-3148 1261,-3194 3213,-11668 4031,-13362 697,-1449 2452,-866 2786,309 320,1125 -1965,9842 -2823,13293 -318,1278 -593,3620 1261,1988 342,-300 711,-1084 1075,-2099 911,-2546 1792,-6557 2134,-8115 269,-1223 521,-2183 991,-2554 295,-233 1477,-652 2134,-88 632,542 387,1160 212,1804 -206,752 -349,1200 -522,2016 761,-1506 2591,-4256 4910,-4931 1802,-524 2639,-282 2991,1647 550,3019 -1625,7080 -2098,10127 -148,963 2,1443 837,786 1361,-1072 1857,-3111 2978,-4585 1114,-1465 1542,-569 1236,775 -356,1577 -1841,3946 -2539,4794 -1333,1620 -3511,3649 -5746,1207 -954,-2014 999,-8270 2138,-10884 150,-341 282,-761 -309,-548 -1314,473 -2568,2290 -3327,3588 -1538,2625 -2201,5124 -3096,7948 -400,1265 -354,1743 -1847,1547 -653,-87 -1030,-203 -1475,-507 -628,899 -1712,1630 -3100,1554 -805,-44 -1112,-288 -1502,-699 -431,-456 -650,-786 -993,-1305 -1193,1268 -2763,2968 -5226,2853 -1772,-81 -3114,-1412 -3335,-3045 -176,-1319 27,-2970 403,-4649 537,-2390 2493,-8197 3151,-9871 133,-339 768,-2057 -948,-1594l0 -1zm90140 46939c579,399 1227,705 2574,228 1180,-415 2197,-1847 1941,-3376 -223,-1319 -1446,-2595 -2954,-2563 -1005,21 -1646,427 -2110,1004 -1278,1589 -653,3872 549,4707l0 0zm964 -17323c0,1838 -455,7256 1282,7547 930,156 1435,-676 1737,-1393 1732,-4103 5154,-18877 5540,-20766 625,-3049 324,-5265 -2344,-6322 -3358,-1333 -4644,360 -5246,3441 -974,4975 -969,12101 -969,17493zm-142684 -2899c-2099,-278 -3025,1354 -4130,3637 -3374,6975 -5443,24461 -3875,28388 545,1365 2505,1592 3662,775 1167,-828 905,-3030 941,-4583 77,-3498 543,-6586 1091,-9887 554,-3334 1130,-5940 1986,-9010 440,-1575 1284,-3881 1960,-5851 636,-1854 629,-3171 -1635,-3469l0 0zm-4230 -7163c-6258,1057 -10595,2812 -14730,6919 -3286,3263 -6833,10452 -3468,16021 1388,2295 5383,3691 7897,1852 1512,-1107 1120,-2590 -1276,-2806 -1859,-166 -2855,-681 -3337,-2366 -1723,-6017 4778,-11232 8378,-13252 12145,-6817 25032,-476 23255,14848 -739,6386 -3038,11309 -6352,15479 -2682,3376 -8212,7525 -14130,7865 -8755,507 -9927,-7902 -4613,-11064 1035,-616 2777,-894 2941,-2385 244,-2225 -2283,-1533 -3543,-1026 -14682,5886 -6686,29677 16336,16416 24877,-14329 20437,-51194 -7358,-46501l0 0zm57577 28672c430,-5141 4035,-11988 7573,-10988 2309,651 1464,2392 854,4301 -815,2561 -1721,6920 -3797,9270 -2926,3313 -4947,1204 -4630,-2583l0 0zm76712 -9881c-426,1209 -1287,2508 -2705,3783 -6019,4253 -5212,-10252 -2177,-11843 173,1649 231,3730 1264,5528 611,1070 2474,2353 3618,2532l0 0zm817 -2668c-3337,-599 -4098,-7680 -1271,-8731 1555,-579 2182,715 2262,2069 121,2077 -39,4824 -991,6662l0 0zm-54605 914c48,-1696 2569,-14309 5030,-15056 486,3955 -2701,12682 -4225,14414 -651,740 -192,265 -805,642zm11065 -1024c124,-3056 3973,-15697 5754,-16696 890,3882 -3233,15478 -5754,16696zm-12297 9677c11,-4737 117,-3976 2345,-6493 5021,-5671 9357,-20481 5884,-21923 -5798,-1072 -9500,10298 -10711,15215 -1591,6452 -1263,11275 -3842,15565 -923,1540 -1411,3270 -3575,3002 -1711,-3266 3132,-12440 3778,-15897 233,-1252 -184,-1880 -1287,-2149 -1185,-286 -1962,85 -2546,1176 -246,457 -516,915 -883,1400 -1451,-595 -1559,-1400 -3748,-1458 -1648,-42 -2906,364 -4202,1096 -6243,3531 -6683,9010 -7878,14031 -298,1252 -2438,5842 -5427,5327 -2156,-3187 1845,-18240 3096,-20763 1902,-358 10445,-2452 13263,-3388 1838,-611 4034,-1520 5747,-2302 1584,-724 4880,-1773 3524,-4100 -1082,-1102 -3420,770 -5027,1282 -3299,1596 -12941,4560 -16532,4959 417,-1428 1287,-3257 1751,-4714 355,-1107 661,-2419 -1176,-2888 -1435,-367 -2161,227 -2763,1340 -1604,2971 -1963,4611 -3147,7231 -2509,339 -4059,188 -5302,253 -1302,71 -1591,673 -1789,1532 -155,684 412,1544 1278,1609 1572,120 3071,-50 4850,-140 -958,3332 -1892,6116 -2487,9047 -894,4407 -526,4965 -2578,8311 -3967,6470 -11769,8151 -11294,1340 2374,-1009 4002,-816 6908,-3864 6210,-6513 3388,-13896 -3979,-10838 -8597,3568 -10828,18540 -4832,22089 4902,2902 11364,-1424 14551,-6259 638,1025 593,5515 5809,4433 3805,-791 4846,-3951 6381,-4481 972,1810 2960,3337 5972,2345 2578,-851 3390,-2952 4967,-4451 302,381 -53,-232 371,632 1174,2388 2606,3670 5533,2210 868,-434 1841,-1397 2498,-2179 844,-1008 1185,-2042 2364,-2621 749,2249 2242,4336 5924,3066 2985,-1029 3313,-3001 5174,-4421 1358,2285 2283,3902 5927,2742 3385,-1077 3432,-3285 5348,-4361 828,2213 1880,3818 5175,2958 2537,-664 3194,-2746 4820,-3655 1430,821 1756,1804 3856,2258 6732,1453 10072,-4555 11772,-5849 1918,2232 2391,4138 6888,3475 2717,-403 5056,-2474 6213,-4199 731,-1089 1342,-2576 1668,-3406 602,-288 6356,-3038 6535,-7793 51,-1363 -1208,-1416 -1764,-475 -283,480 -480,1146 -927,1923 -673,1167 -1912,3077 -3325,3692 553,-2025 1579,-7409 46,-10209 -1680,-3068 -6085,-2523 -8118,-655 -1216,470 -2999,881 -5160,3996 -1757,2638 -1999,4463 -2558,8160 -832,5496 -9232,11337 -10827,4951 -1294,-5177 3514,-15011 6778,-13549 544,242 924,1001 623,1608 -298,604 -1343,850 -1271,2105 55,934 692,1509 1545,1384 2721,-402 3641,-5869 1162,-7352 -3238,-1935 -7714,782 -9250,2338 -5487,5565 -4251,12357 -5085,14271 -641,1471 -1801,2911 -3790,2770 -2054,-4117 2159,-11428 2983,-15634 301,-1525 -249,-2320 -1917,-2466 -3072,-272 -3690,3930 -5510,11156 -608,2415 -3282,10291 -6545,8586 -1176,-962 -1086,-3436 -1006,-5390 164,-4045 2863,-2250 7092,-12087 1050,-2446 2602,-6771 2913,-9776 1033,-10037 -10178,-7006 -14276,20228 -429,2855 -53,3022 -1384,5286 -3110,5293 -5603,4267 -5594,-193l0 0z"/>
  <path class="fil6" d="M103671 26315l544 -143c-1716,1686 -8166,4258 -11208,5247 64,35 145,9 202,90 54,81 153,71 201,85 3280,992 14389,824 17784,326 3579,-524 7046,-1378 8332,-4380 1666,-3895 -5426,-16644 -7827,-19096 -5235,-7200 -11467,-3596 -15325,2419 -1540,2401 -2754,5065 -4004,8148 -540,1334 -872,2549 -1400,4295 -777,2571 -1273,2377 489,4327 759,-395 1416,-1211 1984,-1822 125,-136 786,-550 465,-31 -585,946 -1722,3086 -1752,3962 2595,-576 8985,-8507 12161,-9056 -2355,2684 -8176,7075 -8637,8365 3007,-681 5276,-1901 7991,-2736l0 0zm-51455 10503c163,851 470,1698 745,2175 2423,4207 8009,2973 12147,1743 3568,-1061 13206,-4788 15057,-6960 -3865,173 -8611,164 -11771,-630l1246 -152 6879 -364c-556,-809 -1414,-938 -2680,-1382 -2100,-738 -6791,-2262 -8284,-3118 1776,-848 11449,3750 14463,3670 -455,-1372 -2728,-2479 -3314,-2943 -703,-556 -748,-886 357,-480 323,116 625,236 1082,457 959,461 904,630 1974,682 284,-2433 217,-2191 -1338,-4126 -2479,-3087 -6591,-7255 -9652,-9263 -2093,-1371 -5467,-3301 -8542,-3269 -3030,30 -5482,2231 -6404,4636 -259,678 -489,1398 -754,2108 -805,2159 -1356,7327 -1391,11148 -11,1024 -2,5116 180,6068l0 0zm28969 -5644c-282,1324 339,3833 1061,4998 857,1382 2144,1734 3890,1651 4378,-211 5678,-2545 4894,-6454 -579,-2967 -1893,-4507 -4681,-4367 -2929,148 -4862,1807 -5164,4172zm18030 8961c-966,-351 -1759,-568 -2986,-1126 -1363,-620 -2159,-1510 -3467,-992 457,3466 30062,24368 31185,24491l-3982 -11829c4298,-953 11256,-1444 15327,-3204 -494,-789 -7691,-2461 -8902,-2733l-17117 -6342c-3035,-908 -13079,-4308 -15717,-2776 359,873 4420,3510 5655,4022 391,163 915,818 4,489zm-50913 20647c-1268,837 -3007,1633 -3411,2893 2074,82 5796,-536 7998,-849 2360,-333 5515,-1276 7687,-1356 -5,1381 -88,11347 902,12709 1044,-818 1628,-2232 2566,-3622 4431,-6571 14574,-18997 17927,-25946 740,-1531 1914,-3427 1446,-4645 0,0 -152,-652 -1331,127 -32,21 -952,1091 -973,1116 -689,798 -1105,1071 -1706,1824 -282,353 -1068,181 -561,-405 863,-1003 2586,-3483 2684,-4912 -3661,106 -26597,18694 -33228,23066l0 0z"/>
 </g>
</svg>
